<?xml version="1.0" standalone="no"?>
<!DOCTYPE svg PUBLIC "-//W3C//DTD SVG 20010904//EN"
 "http://www.w3.org/TR/2001/REC-SVG-20010904/DTD/svg10.dtd">
<svg version="1.0" xmlns="http://www.w3.org/2000/svg"
 width="585.000000pt" height="585.000000pt" viewBox="0 0 585.000000 585.000000"
 preserveAspectRatio="xMidYMid meet">
<metadata>
Created by potrace 1.14, written by Peter Selinger 2001-2017
</metadata>
<g transform="translate(0.000000,585.000000) scale(0.100000,-0.100000)"
fill="#000000" stroke="none">
<path d="M827 5119 c-20 -11 -49 -38 -65 -61 l-27 -42 -3 -666 -2 -667 -70 -7
c-249 -23 -483 -190 -591 -421 -180 -388 -1 -850 391 -1009 67 -28 190 -56
239 -56 l31 0 2 -668 3 -668 27 -41 c16 -24 44 -49 70 -62 44 -21 52 -21 701
-21 l657 0 0 -30 c0 -50 28 -173 56 -240 59 -146 186 -291 319 -365 121 -68
194 -85 366 -85 170 0 212 8 324 60 231 106 398 341 421 590 l7 70 657 0 657
0 44 23 c24 13 54 38 67 57 l22 33 0 887 0 886 -36 42 c-26 30 -49 46 -87 57
-77 23 -138 7 -220 -57 -87 -69 -222 -88 -332 -47 -73 27 -156 104 -192 177
-24 50 -28 69 -28 147 0 78 4 98 27 145 71 145 225 226 375 199 66 -12 96 -26
175 -82 88 -62 183 -66 255 -11 67 51 63 -7 63 962 l0 879 -23 34 c-12 18 -40
44 -62 56 l-40 23 -858 0 c-771 0 -861 -2 -890 -16 -81 -41 -112 -101 -108
-210 1 -20 21 -61 56 -114 63 -95 78 -138 77 -232 0 -125 -81 -246 -201 -306
-48 -23 -68 -27 -146 -27 -78 0 -97 4 -146 28 -63 31 -135 102 -170 168 -20
38 -24 59 -24 144 0 110 11 144 80 238 19 27 40 67 46 89 22 83 -26 184 -105
222 -30 14 -123 16 -893 16 -836 -1 -859 -1 -896 -21z"/>
</g>
</svg>
